<svg xmlns="http://www.w3.org/2000/svg" xmlns:xlink="http://www.w3.org/1999/xlink" width="1080" zoomAndPan="magnify" viewBox="0 0 810 809.999993" height="1080" preserveAspectRatio="xMidYMid meet" version="1.0"><defs><clipPath id="fe193e7f4b"><path d="M 7.183594 0 L 16 0 L 16 16 L 7.183594 16 Z M 7.183594 0 " clip-rule="nonzero"/></clipPath><clipPath id="eb7ea86424"><path d="M 800 797 L 802.933594 797 L 802.933594 810 L 800 810 Z M 800 797 " clip-rule="nonzero"/></clipPath><clipPath id="fb1a96a5cf"><path d="M 791 788 L 802.933594 788 L 802.933594 810 L 791 810 Z M 791 788 " clip-rule="nonzero"/></clipPath><clipPath id="a4441b87fd"><path d="M 7.183594 193 L 118 193 L 118 329 L 7.183594 329 Z M 7.183594 193 " clip-rule="nonzero"/></clipPath><clipPath id="c56bc7adac"><path d="M 7.183594 189 L 64 189 L 64 289 L 7.183594 289 Z M 7.183594 189 " clip-rule="nonzero"/></clipPath><clipPath id="9e9db5b21e"><path d="M 747 451 L 802.933594 451 L 802.933594 553 L 747 553 Z M 747 451 " clip-rule="nonzero"/></clipPath></defs><g clip-path="url(#fe193e7f4b)"><path stroke-linecap="round" transform="matrix(0.360275, 0, 0, -0.360249, -362.597645, 1168.248825)" fill="none" stroke-linejoin="round" d="M 1023.436727 3304.155828 C 1023.436727 3259.850546 987.570035 3223.992111 943.32216 3223.992111 C 899.09597 3223.992111 863.207593 3259.850546 863.207593 3304.155828 C 863.207593 3348.450266 899.09597 3384.297858 943.32216 3384.297858 C 987.570035 3384.297858 1023.436727 3348.450266 1023.436727 3304.155828 Z M 1023.436727 3304.155828 " stroke="#180d0c" stroke-width="50" stroke-opacity="1" stroke-miterlimit="10"/></g><g clip-path="url(#eb7ea86424)"><path fill="#ecba2c" d="M 858.296875 826.796875 C 858.296875 842.738281 845.378906 855.675781 829.417969 855.675781 C 813.503906 855.675781 800.566406 842.738281 800.566406 826.796875 C 800.566406 810.824219 813.503906 797.90625 829.417969 797.90625 C 845.378906 797.90625 858.296875 810.824219 858.296875 826.796875 " fill-opacity="1" fill-rule="nonzero"/></g><g clip-path="url(#fb1a96a5cf)"><path stroke-linecap="round" transform="matrix(0.360275, 0, 0, -0.360249, -362.597645, 1168.248825)" fill="none" stroke-linejoin="round" d="M 3388.827723 947.82182 C 3388.827723 903.570754 3352.971873 867.658103 3308.669786 867.658103 C 3264.497808 867.658103 3228.587746 903.570754 3228.587746 947.82182 C 3228.587746 992.159631 3264.497808 1028.007223 3308.669786 1028.007223 C 3352.971873 1028.007223 3388.827723 992.159631 3388.827723 947.82182 Z M 3388.827723 947.82182 " stroke="#180d0c" stroke-width="50" stroke-opacity="1" stroke-miterlimit="10"/></g><path fill="#a4bdc4" d="M 761.9375 394.832031 C 761.9375 596.128906 598.761719 759.332031 397.417969 759.332031 C 196.132812 759.332031 32.910156 596.128906 32.910156 394.832031 C 32.910156 193.535156 196.132812 30.347656 397.417969 30.347656 C 598.761719 30.347656 761.9375 193.535156 761.9375 394.832031 " fill-opacity="1" fill-rule="nonzero"/><path stroke-linecap="round" transform="matrix(0.360275, 0, 0, -0.360249, -362.597645, 1168.248825)" fill="none" stroke-linejoin="round" d="M 3121.367154 2146.894498 C 3121.367154 1588.123138 2668.436321 1135.083742 2109.564301 1135.083742 C 1550.865759 1135.083742 1097.815659 1588.123138 1097.815659 2146.894498 C 1097.815659 2705.665857 1550.865759 3158.629351 2109.564301 3158.629351 C 2668.436321 3158.629351 3121.367154 2705.665857 3121.367154 2146.894498 Z M 3121.367154 2146.894498 " stroke="#180d0c" stroke-width="41.513" stroke-opacity="1" stroke-miterlimit="10"/><path stroke-linecap="round" transform="matrix(0.360275, 0, 0, -0.360249, -362.597645, 1168.248825)" fill-opacity="1" fill="#a4bdc4" fill-rule="nonzero" stroke-linejoin="round" d="M 2597.700439 2983.175664 L 2754.958753 3061.799648 L 2923.710021 2925.479041 L 2880.036794 2755.154184 " stroke="#180d0c" stroke-width="41.513" stroke-opacity="1" stroke-miterlimit="10"/><path fill="#6fcfc8" d="M 693.234375 120.933594 C 688.433594 126.839844 668.832031 118.960938 649.410156 103.328125 C 630.035156 87.625 618.167969 70.144531 622.964844 64.195312 C 627.765625 58.226562 647.382812 66.136719 666.792969 81.8125 C 686.199219 97.515625 698.035156 114.996094 693.234375 120.933594 " fill-opacity="1" fill-rule="nonzero"/><path stroke-linecap="round" transform="matrix(0.360275, 0, 0, -0.360249, -362.597645, 1168.248825)" fill="none" stroke-linejoin="round" d="M 2930.660006 2907.19742 C 2917.345526 2890.79167 2862.927471 2912.673231 2809.019009 2956.067685 C 2755.240655 2999.657316 2722.301414 3048.180599 2735.615893 3064.69478 C 2748.952058 3081.252334 2803.391798 3059.294871 2857.267733 3015.791985 C 2911.143668 2972.191511 2943.985328 2923.679071 2930.660006 2907.19742 Z M 2930.660006 2907.19742 " stroke="#180d0c" stroke-width="40" stroke-opacity="1" stroke-miterlimit="10"/><path fill="#a4bdc4" d="M 57.585938 320.589844 L 15.269531 273.519531 L 46.496094 201.851562 L 109.8125 200.796875 " fill-opacity="1" fill-rule="nonzero"/><g clip-path="url(#a4441b87fd)"><path stroke-linecap="round" transform="matrix(0.360275, 0, 0, -0.360249, -362.597645, 1168.248825)" fill="none" stroke-linejoin="round" d="M 1166.285478 2352.980201 L 1048.829651 2483.640662 L 1135.503876 2682.580702 L 1311.248499 2685.508363 " stroke="#180d0c" stroke-width="41.513" stroke-opacity="1" stroke-miterlimit="10"/></g><path fill="#a4bdc4" d="M 52.148438 197.695312 C 59.144531 200.75 56.75 221.734375 46.785156 244.613281 C 36.824219 267.46875 23.074219 283.550781 16.082031 280.46875 C 9.089844 277.457031 11.492188 256.449219 21.457031 233.59375 C 31.40625 210.699219 45.15625 194.667969 52.148438 197.695312 " fill-opacity="1" fill-rule="nonzero"/><g clip-path="url(#c56bc7adac)"><path stroke-linecap="round" transform="matrix(0.360275, 0, 0, -0.360249, -362.597645, 1168.248825)" fill="none" stroke-linejoin="round" d="M 1151.214528 2694.107015 C 1170.622442 2685.638482 1163.976045 2627.388855 1136.317057 2563.880281 C 1108.679754 2500.436766 1070.503629 2455.784502 1051.095715 2464.350624 C 1031.687801 2472.710725 1038.355883 2531.02541 1066.014871 2594.468925 C 1093.630489 2658.020872 1131.806615 2702.510488 1151.214528 2694.107015 Z M 1151.214528 2694.107015 " stroke="#180d0c" stroke-width="41.513" stroke-opacity="1" stroke-miterlimit="10"/></g><path stroke-linecap="round" transform="matrix(0.360275, 0, 0, -0.360249, -362.597645, 1168.248825)" fill-opacity="1" fill="#a4bdc4" fill-rule="nonzero" stroke-linejoin="round" d="M 2487.454815 1251.149267 L 2443.282837 1081.062961 L 2229.611464 1043.437085 L 2130.12151 1188.367186 " stroke="#180d0c" stroke-width="41.513" stroke-opacity="1" stroke-miterlimit="10"/><path fill="#6fcfc8" d="M 434.09375 789.902344 C 432.757812 782.410156 451.597656 772.800781 476.144531 768.480469 C 500.726562 764.160156 521.710938 766.761719 523.019531 774.265625 C 524.339844 781.808594 505.5 791.375 480.929688 795.710938 C 456.371094 800.046875 435.402344 797.425781 434.09375 789.902344 " fill-opacity="1" fill-rule="nonzero"/><path stroke-linecap="round" transform="matrix(0.360275, 0, 0, -0.360249, -362.597645, 1168.248825)" fill="none" stroke-linejoin="round" d="M 2211.37453 1050.235766 C 2207.655584 1071.033008 2259.959369 1097.70726 2328.082231 1109.69983 C 2396.324359 1121.6924 2454.569785 1114.470834 2458.201993 1093.63022 C 2461.866727 1072.70286 2409.562942 1046.13704 2341.375025 1034.11194 C 2273.208794 1022.075997 2215.006738 1029.351779 2211.37453 1050.235766 Z M 2211.37453 1050.235766 " stroke="#180d0c" stroke-width="40" stroke-opacity="1" stroke-miterlimit="10"/><path stroke-linecap="round" transform="matrix(0.360275, 0, 0, -0.360249, -362.597645, 1168.248825)" fill-opacity="1" fill="#a4bdc4" fill-rule="nonzero" stroke-linejoin="round" d="M 3076.371153 2070.63433 L 3202.294902 1947.943615 L 3128.978526 1743.75547 L 2953.830236 1729.073788 " stroke="#180d0c" stroke-width="41.513" stroke-opacity="1" stroke-miterlimit="10"/><path fill="#a4bdc4" d="M 759.304688 544.605469 C 752.132812 542 753.144531 520.921875 761.558594 497.40625 C 769.992188 473.964844 782.628906 457.03125 789.816406 459.609375 C 796.992188 462.214844 795.980469 483.292969 787.550781 506.738281 C 779.132812 530.234375 766.488281 547.183594 759.304688 544.605469 " fill-opacity="1" fill-rule="nonzero"/><g clip-path="url(#9e9db5b21e)"><path stroke-linecap="round" transform="matrix(0.360275, 0, 0, -0.360249, -362.597645, 1168.248825)" fill="none" stroke-linejoin="round" d="M 3114.05937 1731.133995 C 3094.141863 1738.377247 3096.96089 1796.88711 3120.315441 1862.163124 C 3143.713361 1927.233118 3178.788557 1974.227512 3198.749434 1967.081848 C 3218.666941 1959.849439 3215.847915 1901.328733 3192.460836 1836.258739 C 3169.095443 1771.026097 3133.976877 1723.988331 3114.05937 1731.133995 Z M 3114.05937 1731.133995 " stroke="#180d0c" stroke-width="41.513" stroke-opacity="1" stroke-miterlimit="10"/></g><path stroke-linecap="round" transform="matrix(0.360275, 0, 0, -0.360249, -362.597645, 1168.248825)" fill-opacity="1" fill="#a4bdc4" fill-rule="nonzero" stroke-linejoin="round" d="M 1738.125021 2981.993757 L 1766.792353 3155.441452 L 1976.202659 3212.118816 L 2088.399917 3076.71988 " stroke="#180d0c" stroke-width="41.513" stroke-opacity="1" stroke-miterlimit="10"/><path fill="#a4bdc4" d="M 356.171875 12.898438 C 358.136719 20.277344 340.253906 31.535156 316.175781 38.019531 C 292.09375 44.578125 270.984375 43.863281 268.988281 36.484375 C 266.988281 29.109375 284.890625 17.898438 308.957031 11.367188 C 333.03125 4.867188 354.171875 5.554688 356.171875 12.898438 " fill-opacity="1" fill-rule="nonzero"/><path stroke-linecap="round" transform="matrix(0.360275, 0, 0, -0.360249, -362.597645, 1168.248825)" fill="none" stroke-linejoin="round" d="M 1995.079294 3207.087575 C 2000.543869 3186.604786 1950.896474 3155.354707 1884.063859 3137.355009 C 1817.220402 3119.14929 1758.628018 3121.133594 1753.087547 3141.616383 C 1747.536233 3162.077486 1797.226998 3193.208289 1864.027085 3211.338106 C 1930.8597 3229.381177 1989.538823 3227.461932 1995.079294 3207.087575 Z M 1995.079294 3207.087575 " stroke="#180d0c" stroke-width="41.513" stroke-opacity="1" stroke-miterlimit="10"/><path stroke-linecap="round" transform="matrix(0.360275, 0, 0, -0.360249, -362.597645, 1168.248825)" fill-opacity="1" fill="#a4bdc4" fill-rule="nonzero" stroke-linejoin="round" d="M 1520.853968 1393.94326 L 1356.407137 1331.757555 L 1202.379861 1484.494754 L 1263.162411 1649.430545 " stroke="#180d0c" stroke-width="41.513" stroke-opacity="1" stroke-miterlimit="10"/><path fill="#a4bdc4" d="M 68.742188 626.660156 C 74.132812 621.226562 92.835938 631.121094 110.535156 648.640625 C 128.253906 666.230469 138.265625 684.835938 132.898438 690.253906 C 127.507812 695.675781 108.824219 685.804688 91.105469 668.269531 C 73.386719 650.742188 63.382812 632.121094 68.742188 626.660156 " fill-opacity="1" fill-rule="nonzero"/><path stroke-linecap="round" transform="matrix(0.360275, 0, 0, -0.360249, -362.597645, 1168.248825)" fill="none" stroke-linejoin="round" d="M 1197.262243 1503.372751 C 1212.224769 1518.444788 1264.138228 1490.989826 1313.27603 1442.358111 C 1362.457201 1393.520375 1390.235456 1341.874253 1375.348827 1326.845589 C 1360.386301 1311.795239 1308.516212 1339.195984 1259.33504 1387.871072 C 1210.164711 1436.524474 1182.386457 1488.213969 1197.262243 1503.372751 Z M 1197.262243 1503.372751 " stroke="#180d0c" stroke-width="41.513" stroke-opacity="1" stroke-miterlimit="10"/><path fill="#73cc83" d="M 657.742188 291.703125 C 672.152344 324.769531 673.023438 356.289062 659.722656 362.089844 C 646.398438 367.871094 623.953125 345.765625 609.542969 312.695312 C 595.132812 279.613281 594.257812 248.101562 607.585938 242.304688 C 620.886719 236.496094 643.34375 258.644531 657.742188 291.703125 " fill-opacity="1" fill-rule="nonzero"/><path stroke-linecap="round" transform="matrix(0.360275, 0, 0, -0.360249, -362.597645, 1168.248825)" fill="none" stroke-linejoin="round" d="M 2832.145869 2433.165604 C 2872.154362 2341.377986 2874.572219 2253.884271 2837.653813 2237.782131 C 2800.659511 2221.734207 2738.369866 2283.084987 2698.361373 2374.894291 C 2658.363723 2466.725283 2655.935023 2554.197311 2692.929325 2570.277764 C 2729.847731 2586.412434 2792.191589 2524.931536 2832.145869 2433.165604 Z M 2832.145869 2433.165604 " stroke="#180d0c" stroke-width="50" stroke-opacity="1" stroke-miterlimit="10"/><path fill="#6fcfc8" d="M 271.648438 331.484375 C 271.648438 373.402344 246.609375 407.359375 215.738281 407.359375 C 184.859375 407.359375 159.851562 373.402344 159.851562 331.484375 C 159.851562 289.519531 184.859375 255.5625 215.738281 255.5625 C 246.609375 255.5625 271.648438 289.519531 271.648438 331.484375 " fill-opacity="1" fill-rule="nonzero"/><path stroke-linecap="round" transform="matrix(0.360275, 0, 0, -0.360249, -362.597645, 1168.248825)" fill="none" stroke-linejoin="round" d="M 1760.471228 2322.738539 C 1760.471228 2206.369405 1690.97138 2112.120382 1605.283814 2112.120382 C 1519.574564 2112.120382 1450.161455 2206.369405 1450.161455 2322.738539 C 1450.161455 2439.216105 1519.574564 2533.486815 1605.283814 2533.486815 C 1690.97138 2533.486815 1760.471228 2439.216105 1760.471228 2322.738539 Z M 1760.471228 2322.738539 " stroke="#180d0c" stroke-width="40" stroke-opacity="1" stroke-miterlimit="10"/><path fill="#73cc83" d="M 347.925781 599.402344 C 365.398438 615.304688 370.058594 638.636719 358.335938 651.5 C 346.601562 664.390625 322.929688 661.898438 305.464844 645.996094 C 287.972656 630.066406 283.328125 606.703125 295.066406 593.875 C 306.773438 580.984375 330.445312 583.429688 347.925781 599.402344 " fill-opacity="1" fill-rule="nonzero"/><path stroke-linecap="round" transform="matrix(0.360275, 0, 0, -0.360249, -362.597645, 1168.248825)" fill="none" stroke-linejoin="round" d="M 1972.190967 1579.036544 C 2020.699909 1534.89391 2033.634904 1470.127525 2001.085989 1434.420895 C 1968.51539 1398.638362 1902.821228 1405.556318 1854.344813 1449.698952 C 1805.781659 1493.917488 1792.890034 1558.759775 1825.471476 1594.37966 C 1857.977021 1630.162193 1923.671182 1623.374355 1972.190967 1579.036544 Z M 1972.190967 1579.036544 " stroke="#180d0c" stroke-width="50" stroke-opacity="1" stroke-miterlimit="10"/><path fill="#6fcfc8" d="M 544.890625 587.304688 C 566.800781 578.433594 589.867188 584.316406 596.398438 600.457031 C 602.941406 616.574219 590.472656 636.851562 568.574219 645.730469 C 546.648438 654.59375 523.597656 648.742188 517.054688 632.601562 C 510.507812 616.429688 522.960938 596.167969 544.890625 587.304688 " fill-opacity="1" fill-rule="nonzero"/><path stroke-linecap="round" transform="matrix(0.360275, 0, 0, -0.360249, -362.597645, 1168.248825)" fill="none" stroke-linejoin="round" d="M 2518.908646 1612.617909 C 2579.723723 1637.242797 2643.748154 1620.91295 2661.876663 1576.108882 C 2680.0377 1531.369872 2645.428728 1475.082864 2584.646177 1450.436289 C 2523.78773 1425.833087 2459.806669 1442.076188 2441.645633 1486.880256 C 2423.473754 1531.760227 2458.039356 1588.014706 2518.908646 1612.617909 Z M 2518.908646 1612.617909 " stroke="#180d0c" stroke-width="40" stroke-opacity="1" stroke-miterlimit="10"/><path fill="#a4bdc4" d="M 508.398438 422.300781 C 508.398438 455.066406 481.859375 481.632812 449.09375 481.632812 C 416.347656 481.632812 389.789062 455.066406 389.789062 422.300781 C 389.789062 389.585938 416.347656 363.003906 449.09375 363.003906 C 481.859375 363.003906 508.398438 389.585938 508.398438 422.300781 " fill-opacity="1" fill-rule="nonzero"/><path stroke-linecap="round" transform="matrix(0.360275, 0, 0, -0.360249, -362.597645, 1168.248825)" fill="none" stroke-linejoin="round" d="M 2417.618852 2070.63433 C 2417.618852 1979.69248 2343.944677 1905.947933 2253.009384 1905.947933 C 2162.106619 1905.947933 2088.399917 1979.69248 2088.399917 2070.63433 C 2088.399917 2161.456904 2162.106619 2235.244824 2253.009384 2235.244824 C 2343.944677 2235.244824 2417.618852 2161.456904 2417.618852 2070.63433 Z M 2417.618852 2070.63433 " stroke="#180d0c" stroke-width="41.513" stroke-opacity="1" stroke-miterlimit="10"/><path fill="#a4bdc4" d="M 423.15625 255.5625 C 423.15625 273.984375 408.214844 288.898438 389.789062 288.898438 C 371.367188 288.898438 356.425781 273.984375 356.425781 255.5625 C 356.425781 237.144531 371.367188 222.195312 389.789062 222.195312 C 408.214844 222.195312 423.15625 237.144531 423.15625 255.5625 " fill-opacity="1" fill-rule="nonzero"/><path stroke-linecap="round" transform="matrix(0.360275, 0, 0, -0.360249, -362.597645, 1168.248825)" fill="none" stroke-linejoin="round" d="M 2181.015782 2533.486815 C 2181.015782 2482.350322 2139.532722 2440.951016 2088.399917 2440.951016 C 2037.267111 2440.951016 1995.784051 2482.350322 1995.784051 2533.486815 C 1995.784051 2584.612464 2037.267111 2626.109359 2088.399917 2626.109359 C 2139.532722 2626.109359 2181.015782 2584.612464 2181.015782 2533.486815 Z M 2181.015782 2533.486815 " stroke="#180d0c" stroke-width="41.513" stroke-opacity="1" stroke-miterlimit="10"/><path fill="#73cc83" d="M 633.648438 502.082031 C 633.648438 514.53125 623.542969 524.652344 611.105469 524.652344 C 598.648438 524.652344 588.558594 514.53125 588.558594 502.082031 C 588.558594 489.652344 598.648438 479.523438 611.105469 479.523438 C 623.542969 479.523438 633.648438 489.652344 633.648438 502.082031 " fill-opacity="1" fill-rule="nonzero"/><path stroke-linecap="round" transform="matrix(0.360275, 0, 0, -0.360249, -362.597645, 1168.248825)" fill="none" stroke-linejoin="round" d="M 2765.280727 1849.183824 C 2765.280727 1814.626572 2737.22057 1786.531862 2702.698337 1786.531862 C 2668.132734 1786.531862 2640.115947 1814.626572 2640.115947 1849.183824 C 2640.115947 1883.676017 2668.132734 1911.803256 2702.698337 1911.803256 C 2737.22057 1911.803256 2765.280727 1883.676017 2765.280727 1849.183824 Z M 2765.280727 1849.183824 " stroke="#180d0c" stroke-width="50" stroke-opacity="1" stroke-miterlimit="10"/></svg>