<?xml version="1.0" encoding="UTF-8"?><svg xmlns="http://www.w3.org/2000/svg" xmlns:xlink="http://www.w3.org/1999/xlink" width="810" zoomAndPan="magnify" viewBox="0 0 810 809.999993" height="809.999993" preserveAspectRatio="xMidYMid meet" version="1.0"><path stroke-linecap="round" transform="matrix(0.277526, 0, 0, -0.27751, -185.160002, 993.487002)" fill="none" stroke-linejoin="round" d="M 943.321787 3554.846383 L 943.321787 3373.997248 " stroke="rgb(9.408569%, 5.099487%, 4.708862%)" stroke-width="50" stroke-opacity="1" stroke-miterlimit="10"/><path stroke-linecap="round" transform="matrix(0.277526, 0, 0, -0.27751, -185.160002, 993.487002)" fill="none" stroke-linejoin="round" d="M 943.321787 3234.348722 L 943.321787 3053.443283 " stroke="rgb(9.408569%, 5.099487%, 4.708862%)" stroke-width="50" stroke-opacity="1" stroke-miterlimit="10"/><path stroke-linecap="round" transform="matrix(0.277526, 0, 0, -0.27751, -185.160002, 993.487002)" fill="none" stroke-linejoin="round" d="M 1194.058048 3304.151871 L 1013.092734 3304.151871 " stroke="rgb(9.408569%, 5.099487%, 4.708862%)" stroke-width="50" stroke-opacity="1" stroke-miterlimit="10"/><path stroke-linecap="round" transform="matrix(0.277526, 0, 0, -0.27751, -185.160002, 993.487002)" fill="none" stroke-linejoin="round" d="M 873.508614 3304.151871 L 692.57145 3304.151871 " stroke="rgb(9.408569%, 5.099487%, 4.708862%)" stroke-width="50" stroke-opacity="1" stroke-miterlimit="10"/><path fill="rgb(92.549133%, 72.938538%, 17.248535%)" d="M 98.871094 76.550781 C 98.871094 88.84375 88.917969 98.796875 76.636719 98.796875 C 64.363281 98.796875 54.402344 88.84375 54.402344 76.550781 C 54.402344 64.257812 64.363281 54.308594 76.636719 54.308594 C 88.917969 54.308594 98.871094 64.257812 98.871094 76.550781 " fill-opacity="1" fill-rule="nonzero"/><path stroke-linecap="round" transform="matrix(0.277526, 0, 0, -0.27751, -185.160002, 993.487002)" fill="none" stroke-linejoin="round" d="M 1023.438032 3304.151871 C 1023.438032 3259.854531 987.57433 3223.988747 943.321787 3223.988747 C 899.097394 3223.988747 863.205541 3259.854531 863.205541 3304.151871 C 863.205541 3348.449211 899.097394 3384.30092 943.321787 3384.30092 C 987.57433 3384.30092 1023.438032 3348.449211 1023.438032 3304.151871 Z M 1023.438032 3304.151871 " stroke="rgb(9.408569%, 5.099487%, 4.708862%)" stroke-width="50" stroke-opacity="1" stroke-miterlimit="10"/><path stroke-linecap="round" transform="matrix(0.277526, 0, 0, -0.27751, -185.160002, 993.487002)" fill="none" stroke-linejoin="round" d="M 3308.665265 1198.529113 L 3308.665265 1017.665902 " stroke="rgb(9.408569%, 5.099487%, 4.708862%)" stroke-width="50" stroke-opacity="1" stroke-miterlimit="10"/><path stroke-linecap="round" transform="matrix(0.277526, 0, 0, -0.27751, -185.160002, 993.487002)" fill="none" stroke-linejoin="round" d="M 3308.665265 878.017376 L 3308.665265 697.154165 " stroke="rgb(9.408569%, 5.099487%, 4.708862%)" stroke-width="50" stroke-opacity="1" stroke-miterlimit="10"/><path stroke-linecap="round" transform="matrix(0.277526, 0, 0, -0.27751, -185.160002, 993.487002)" fill="none" stroke-linejoin="round" d="M 3559.457828 947.820525 L 3378.478438 947.820525 " stroke="rgb(9.408569%, 5.099487%, 4.708862%)" stroke-width="50" stroke-opacity="1" stroke-miterlimit="10"/><path stroke-linecap="round" transform="matrix(0.277526, 0, 0, -0.27751, -185.160002, 993.487002)" fill="none" stroke-linejoin="round" d="M 3238.908394 947.820525 L 3057.929004 947.820525 " stroke="rgb(9.408569%, 5.099487%, 4.708862%)" stroke-width="50" stroke-opacity="1" stroke-miterlimit="10"/><path fill="rgb(92.549133%, 72.938538%, 17.248535%)" d="M 755.328125 730.457031 C 755.328125 742.738281 745.378906 752.703125 733.082031 752.703125 C 720.824219 752.703125 710.859375 742.738281 710.859375 730.457031 C 710.859375 718.152344 720.824219 708.203125 733.082031 708.203125 C 745.378906 708.203125 755.328125 718.152344 755.328125 730.457031 " fill-opacity="1" fill-rule="nonzero"/><path stroke-linecap="round" transform="matrix(0.277526, 0, 0, -0.27751, -185.160002, 993.487002)" fill="none" stroke-linejoin="round" d="M 3388.823737 947.820525 C 3388.823737 903.565413 3352.97411 867.657401 3308.665265 867.657401 C 3264.497174 867.657401 3228.591245 903.565413 3228.591245 947.820525 C 3228.591245 992.160093 3264.497174 1028.011801 3308.665265 1028.011801 C 3352.97411 1028.011801 3388.823737 992.160093 3388.823737 947.820525 Z M 3388.823737 947.820525 " stroke="rgb(9.408569%, 5.099487%, 4.708862%)" stroke-width="50" stroke-opacity="1" stroke-miterlimit="10"/><path stroke-linecap="round" transform="matrix(0.277526, 0, 0, -0.27751, -185.160002, 993.487002)" fill="none" stroke-linejoin="round" d="M 2721.207123 947.229331 L 2721.207123 857.001828 " stroke="rgb(9.408569%, 5.099487%, 4.708862%)" stroke-width="40" stroke-opacity="1" stroke-miterlimit="10"/><path stroke-linecap="round" transform="matrix(0.277526, 0, 0, -0.27751, -185.160002, 993.487002)" fill="none" stroke-linejoin="round" d="M 2721.207123 787.353516 L 2721.207123 697.154165 " stroke="rgb(9.408569%, 5.099487%, 4.708862%)" stroke-width="40" stroke-opacity="1" stroke-miterlimit="10"/><path stroke-linecap="round" transform="matrix(0.277526, 0, 0, -0.27751, -185.160002, 993.487002)" fill="none" stroke-linejoin="round" d="M 2846.293749 822.191748 L 2756.015183 822.191748 " stroke="rgb(9.408569%, 5.099487%, 4.708862%)" stroke-width="40" stroke-opacity="1" stroke-miterlimit="10"/><path stroke-linecap="round" transform="matrix(0.277526, 0, 0, -0.27751, -185.160002, 993.487002)" fill="none" stroke-linejoin="round" d="M 2686.413139 822.191748 L 2596.134573 822.191748 " stroke="rgb(9.408569%, 5.099487%, 4.708862%)" stroke-width="40" stroke-opacity="1" stroke-miterlimit="10"/><path fill="rgb(92.549133%, 72.938538%, 17.248535%)" d="M 581.136719 765.320312 C 581.136719 771.453125 576.171875 776.417969 570.046875 776.417969 C 563.933594 776.417969 558.957031 771.453125 558.957031 765.320312 C 558.957031 759.183594 563.933594 754.230469 570.046875 754.230469 C 576.171875 754.230469 581.136719 759.183594 581.136719 765.320312 " fill-opacity="1" fill-rule="nonzero"/><path stroke-linecap="round" transform="matrix(0.277526, 0, 0, -0.27751, -185.160002, 993.487002)" fill="none" stroke-linejoin="round" d="M 2761.16672 822.191748 C 2761.16672 800.092344 2743.277094 782.20168 2721.207123 782.20168 C 2699.179378 782.20168 2681.247527 800.092344 2681.247527 822.191748 C 2681.247527 844.305228 2699.179378 862.153664 2721.207123 862.153664 C 2743.277094 862.153664 2761.16672 844.305228 2761.16672 822.191748 Z M 2761.16672 822.191748 " stroke="rgb(9.408569%, 5.099487%, 4.708862%)" stroke-width="40" stroke-opacity="1" stroke-miterlimit="10"/><path fill="rgb(64.309692%, 74.119568%, 76.858521%)" d="M 681.101562 397.703125 C 681.101562 552.765625 555.402344 678.488281 400.300781 678.488281 C 245.246094 678.488281 119.511719 552.765625 119.511719 397.703125 C 119.511719 242.636719 245.246094 116.929688 400.300781 116.929688 C 555.402344 116.929688 681.101562 242.636719 681.101562 397.703125 " fill-opacity="1" fill-rule="nonzero"/><path stroke-linecap="round" transform="matrix(0.277526, 0, 0, -0.27751, -185.160002, 993.487002)" fill="none" stroke-linejoin="round" d="M 3121.366095 2146.889137 C 3121.366095 1588.12612 2668.439062 1135.08834 2109.567725 1135.08834 C 1550.865291 1135.08834 1097.811582 1588.12612 1097.811582 2146.889137 C 1097.811582 2705.666231 1550.865291 3158.633631 2109.567725 3158.633631 C 2668.439062 3158.633631 3121.366095 2705.666231 3121.366095 2146.889137 Z M 3121.366095 2146.889137 " stroke="rgb(9.408569%, 5.099487%, 4.708862%)" stroke-width="41.513" stroke-opacity="1" stroke-miterlimit="10"/><path stroke-linecap="round" transform="matrix(0.277526, 0, 0, -0.27751, -185.160002, 993.487002)" fill-opacity="1" fill="rgb(64.309692%, 74.119568%, 76.858521%)" fill-rule="nonzero" stroke-linejoin="round" d="M 2597.696924 2983.175625 L 2754.95954 3061.804459 L 2923.70755 2925.477882 L 2880.032091 2755.157635 " stroke="rgb(9.408569%, 5.099487%, 4.708862%)" stroke-width="41.513" stroke-opacity="1" stroke-miterlimit="10"/><path fill="rgb(43.528748%, 81.17981%, 78.42865%)" d="M 628.175781 186.710938 C 624.480469 191.261719 609.378906 185.191406 594.417969 173.148438 C 579.492188 161.050781 570.351562 147.585938 574.046875 143.003906 C 577.746094 138.40625 592.855469 144.5 607.808594 156.574219 C 622.757812 168.671875 631.875 182.136719 628.175781 186.710938 " fill-opacity="1" fill-rule="nonzero"/><path stroke-linecap="round" transform="matrix(0.277526, 0, 0, -0.27751, -185.160002, 993.487002)" fill="none" stroke-linejoin="round" d="M 2930.660716 2907.193088 C 2917.345543 2890.794486 2862.930679 2912.668673 2809.022523 2956.065146 C 2755.241045 2999.658683 2722.304992 3048.178839 2735.620165 3064.69005 C 2748.949414 3081.257565 2803.392429 3059.298922 2857.272434 3015.78984 C 2911.138364 2972.196303 2943.989965 2923.676147 2930.660716 2907.193088 Z M 2930.660716 2907.193088 " stroke="rgb(9.408569%, 5.099487%, 4.708862%)" stroke-width="40" stroke-opacity="1" stroke-miterlimit="10"/><path stroke-linecap="round" transform="matrix(0.277526, 0, 0, -0.27751, -185.160002, 993.487002)" fill-opacity="1" fill="rgb(64.309692%, 74.119568%, 76.858521%)" fill-rule="nonzero" stroke-linejoin="round" d="M 1166.287607 2352.976636 L 1048.829759 2483.64464 L 1135.505065 2682.581503 L 1311.248467 2685.509322 " stroke="rgb(9.408569%, 5.099487%, 4.708862%)" stroke-width="41.513" stroke-opacity="1" stroke-miterlimit="10"/><path fill="rgb(64.309692%, 74.119568%, 76.858521%)" d="M 134.332031 245.84375 C 139.71875 248.195312 137.875 264.359375 130.199219 281.984375 C 122.527344 299.589844 111.933594 311.980469 106.546875 309.605469 C 101.160156 307.285156 103.011719 291.101562 110.6875 273.496094 C 118.351562 255.859375 128.945312 243.511719 134.332031 245.84375 " fill-opacity="1" fill-rule="nonzero"/><path stroke-linecap="round" transform="matrix(0.277526, 0, 0, -0.27751, -185.160002, 993.487002)" fill="none" stroke-linejoin="round" d="M 1151.213029 2694.109791 C 1170.62278 2685.636007 1163.979268 2627.389298 1136.321428 2563.878145 C 1108.677664 2500.437372 1070.505623 2455.78813 1051.095872 2464.346371 C 1031.686121 2472.707546 1038.357783 2531.024636 1066.015623 2594.465409 C 1093.631236 2658.01879 1131.803278 2702.513195 1151.213029 2694.109791 Z M 1151.213029 2694.109791 " stroke="rgb(9.408569%, 5.099487%, 4.708862%)" stroke-width="41.513" stroke-opacity="1" stroke-miterlimit="10"/><path stroke-linecap="round" transform="matrix(0.277526, 0, 0, -0.27751, -185.160002, 993.487002)" fill-opacity="1" fill="rgb(64.309692%, 74.119568%, 76.858521%)" fill-rule="nonzero" stroke-linejoin="round" d="M 2487.459672 1251.145401 L 2443.277505 1081.064447 L 2229.615417 1043.439156 L 2130.11757 1188.366202 " stroke="rgb(9.408569%, 5.099487%, 4.708862%)" stroke-width="41.513" stroke-opacity="1" stroke-miterlimit="10"/><path fill="rgb(43.528748%, 81.17981%, 78.42865%)" d="M 428.554688 702.035156 C 427.523438 696.265625 442.039062 688.863281 460.945312 685.535156 C 479.882812 682.207031 496.046875 684.210938 497.054688 689.992188 C 498.074219 695.800781 483.558594 703.171875 464.632812 706.511719 C 445.714844 709.851562 429.5625 707.832031 428.554688 702.035156 " fill-opacity="1" fill-rule="nonzero"/><path stroke-linecap="round" transform="matrix(0.277526, 0, 0, -0.27751, -185.160002, 993.487002)" fill="none" stroke-linejoin="round" d="M 2211.37391 1050.23789 C 2207.658048 1071.028221 2259.961626 1097.702342 2328.085771 1109.69514 C 2396.322517 1121.687937 2454.565845 1114.466922 2458.197256 1093.634363 C 2461.870893 1072.703271 2409.567314 1046.141758 2341.372794 1034.106733 C 2273.206424 1022.071707 2215.005321 1029.349026 2211.37391 1050.23789 Z M 2211.37391 1050.23789 " stroke="rgb(9.408569%, 5.099487%, 4.708862%)" stroke-width="40" stroke-opacity="1" stroke-miterlimit="10"/><path stroke-linecap="round" transform="matrix(0.277526, 0, 0, -0.27751, -185.160002, 993.487002)" fill-opacity="1" fill="rgb(64.309692%, 74.119568%, 76.858521%)" fill-rule="nonzero" stroke-linejoin="round" d="M 3076.367564 2070.639156 L 3202.298704 1947.938198 L 3128.980797 1743.750967 L 2953.828556 1729.069643 " stroke="rgb(9.408569%, 5.099487%, 4.708862%)" stroke-width="41.513" stroke-opacity="1" stroke-miterlimit="10"/><path fill="rgb(64.309692%, 74.119568%, 76.858521%)" d="M 679.074219 513.078125 C 673.546875 511.070312 674.328125 494.832031 680.808594 476.71875 C 687.304688 458.660156 697.039062 445.617188 702.578125 447.601562 C 708.105469 449.609375 707.324219 465.847656 700.832031 483.90625 C 694.347656 502.007812 684.605469 515.0625 679.074219 513.078125 " fill-opacity="1" fill-rule="nonzero"/><path stroke-linecap="round" transform="matrix(0.277526, 0, 0, -0.27751, -185.160002, 993.487002)" fill="none" stroke-linejoin="round" d="M 3114.061047 1731.138823 C 3094.144587 1738.373914 3096.959635 1796.888069 3120.310452 1862.158728 C 3143.71757 1927.232323 3178.793059 1974.232266 3198.751744 1967.081631 C 3218.668204 1959.846539 3215.853157 1901.332385 3192.460114 1836.25879 C 3169.095221 1771.030358 3133.977506 1723.988188 3114.061047 1731.138823 Z M 3114.061047 1731.138823 " stroke="rgb(9.408569%, 5.099487%, 4.708862%)" stroke-width="41.513" stroke-opacity="1" stroke-miterlimit="10"/><path stroke-linecap="round" transform="matrix(0.277526, 0, 0, -0.27751, -185.160002, 993.487002)" fill-opacity="1" fill="rgb(64.309692%, 74.119568%, 76.858521%)" fill-rule="nonzero" stroke-linejoin="round" d="M 1738.122236 2981.993236 L 1766.793493 3155.438367 L 1976.20486 3212.122634 L 2088.39857 3076.725076 " stroke="rgb(9.408569%, 5.099487%, 4.708862%)" stroke-width="41.513" stroke-opacity="1" stroke-miterlimit="10"/><path fill="rgb(64.309692%, 74.119568%, 76.858521%)" d="M 368.527344 103.488281 C 370.042969 109.171875 356.265625 117.84375 337.71875 122.839844 C 319.167969 127.890625 302.90625 127.339844 301.367188 121.65625 C 299.828125 115.976562 313.617188 107.339844 332.15625 102.308594 C 350.703125 97.300781 366.988281 97.832031 368.527344 103.488281 " fill-opacity="1" fill-rule="nonzero"/><path stroke-linecap="round" transform="matrix(0.277526, 0, 0, -0.27751, -185.160002, 993.487002)" fill="none" stroke-linejoin="round" d="M 1995.079752 3207.083407 C 2000.540944 3186.602749 1950.897585 3155.35391 1884.068363 3137.350638 C 1817.225065 3119.150301 1758.629856 3121.135024 1753.084213 3141.615682 C 1747.53857 3162.082264 1797.224154 3193.204418 1864.025226 3211.334375 C 1930.854449 3229.379875 1989.534109 3227.465532 1995.079752 3207.083407 Z M 1995.079752 3207.083407 " stroke="rgb(9.408569%, 5.099487%, 4.708862%)" stroke-width="41.513" stroke-opacity="1" stroke-miterlimit="10"/><path stroke-linecap="round" transform="matrix(0.277526, 0, 0, -0.27751, -185.160002, 993.487002)" fill-opacity="1" fill="rgb(64.309692%, 74.119568%, 76.858521%)" fill-rule="nonzero" stroke-linejoin="round" d="M 1520.856887 1393.946963 L 1356.401825 1331.758959 L 1202.376513 1484.498215 L 1263.167459 1649.427333 " stroke="rgb(9.408569%, 5.099487%, 4.708862%)" stroke-width="41.513" stroke-opacity="1" stroke-miterlimit="10"/><path fill="rgb(64.309692%, 74.119568%, 76.858521%)" d="M 147.113281 576.285156 C 151.265625 572.101562 165.671875 579.722656 179.308594 593.21875 C 192.957031 606.769531 200.667969 621.101562 196.535156 625.273438 C 192.382812 629.449219 177.988281 621.847656 164.339844 608.339844 C 150.691406 594.835938 142.984375 580.492188 147.113281 576.285156 " fill-opacity="1" fill-rule="nonzero"/><path stroke-linecap="round" transform="matrix(0.277526, 0, 0, -0.27751, -185.160002, 993.487002)" fill="none" stroke-linejoin="round" d="M 1197.267202 1503.374202 C 1212.229178 1518.449655 1264.13865 1490.987275 1313.275301 1442.354511 C 1362.454177 1393.524681 1390.238693 1341.879641 1375.347093 1326.846416 C 1360.385117 1311.799115 1308.517871 1339.191115 1259.338995 1387.866108 C 1210.160119 1436.527024 1182.389677 1488.214293 1197.267202 1503.374202 Z M 1197.267202 1503.374202 " stroke="rgb(9.408569%, 5.099487%, 4.708862%)" stroke-width="41.513" stroke-opacity="1" stroke-miterlimit="10"/><path fill="rgb(45.098877%, 79.998779%, 51.368713%)" d="M 600.835938 318.257812 C 611.9375 343.730469 612.609375 368.011719 602.363281 372.480469 C 592.097656 376.933594 574.808594 359.90625 563.707031 334.429688 C 552.605469 308.945312 551.933594 284.671875 562.199219 280.207031 C 572.445312 275.730469 589.746094 292.792969 600.835938 318.257812 " fill-opacity="1" fill-rule="nonzero"/><path stroke-linecap="round" transform="matrix(0.277526, 0, 0, -0.27751, -185.160002, 993.487002)" fill="none" stroke-linejoin="round" d="M 2832.148137 2433.167912 C 2872.149959 2341.377968 2874.570899 2253.88122 2837.651554 2237.778215 C 2800.661833 2221.731514 2738.364837 2283.089031 2698.363015 2374.893051 C 2658.361193 2466.725224 2655.940252 2554.19382 2692.929973 2570.282749 C 2729.849319 2586.413906 2792.188541 2524.929705 2832.148137 2433.167912 Z M 2832.148137 2433.167912 " stroke="rgb(9.408569%, 5.099487%, 4.708862%)" stroke-width="50" stroke-opacity="1" stroke-miterlimit="10"/><path fill="rgb(43.528748%, 81.17981%, 78.42865%)" d="M 303.417969 348.902344 C 303.417969 381.195312 284.128906 407.351562 260.347656 407.351562 C 236.5625 407.351562 217.296875 381.195312 217.296875 348.902344 C 217.296875 316.578125 236.5625 290.417969 260.347656 290.417969 C 284.128906 290.417969 303.417969 316.578125 303.417969 348.902344 " fill-opacity="1" fill-rule="nonzero"/><path stroke-linecap="round" transform="matrix(0.277526, 0, 0, -0.27751, -185.160002, 993.487002)" fill="none" stroke-linejoin="round" d="M 1760.473712 2322.741273 C 1760.473712 2206.374539 1690.970194 2112.121285 1605.280155 2112.121285 C 1519.576041 2112.121285 1450.156975 2206.374539 1450.156975 2322.741273 C 1450.156975 2439.220615 1519.576041 2533.487945 1605.280155 2533.487945 C 1690.970194 2533.487945 1760.473712 2439.220615 1760.473712 2322.741273 Z M 1760.473712 2322.741273 " stroke="rgb(9.408569%, 5.099487%, 4.708862%)" stroke-width="40" stroke-opacity="1" stroke-miterlimit="10"/><path fill="rgb(45.098877%, 79.998779%, 51.368713%)" d="M 362.175781 555.289062 C 375.636719 567.539062 379.226562 585.511719 370.195312 595.421875 C 361.15625 605.351562 342.921875 603.429688 329.46875 591.179688 C 315.992188 578.910156 312.414062 560.914062 321.457031 551.03125 C 330.476562 541.101562 348.710938 542.984375 362.175781 555.289062 " fill-opacity="1" fill-rule="nonzero"/><path stroke-linecap="round" transform="matrix(0.277526, 0, 0, -0.27751, -185.160002, 993.487002)" fill="none" stroke-linejoin="round" d="M 1972.193418 1579.032989 C 2020.696683 1534.890486 2033.631825 1470.126564 2001.089878 1434.415616 C 1968.519781 1398.634289 1902.816578 1405.559707 1854.341463 1449.70221 C 1805.781898 1493.915094 1792.888981 1558.763473 1825.473154 1594.375888 C 1857.972874 1630.157216 1923.676078 1623.372558 1972.193418 1579.032989 Z M 1972.193418 1579.032989 " stroke="rgb(9.408569%, 5.099487%, 4.708862%)" stroke-width="50" stroke-opacity="1" stroke-miterlimit="10"/><path fill="rgb(43.528748%, 81.17981%, 78.42865%)" d="M 513.902344 545.96875 C 530.78125 539.136719 548.550781 543.667969 553.582031 556.101562 C 558.621094 568.515625 549.015625 584.136719 532.148438 590.976562 C 515.257812 597.804688 497.5 593.296875 492.460938 580.863281 C 487.417969 568.40625 497.011719 552.796875 513.902344 545.96875 " fill-opacity="1" fill-rule="nonzero"/><path stroke-linecap="round" transform="matrix(0.277526, 0, 0, -0.27751, -185.160002, 993.487002)" fill="none" stroke-linejoin="round" d="M 2518.903751 1612.618453 C 2579.722847 1637.23747 2643.751097 1620.909248 2661.880002 1576.10517 C 2680.037057 1531.371473 2645.426051 1475.081335 2584.64918 1450.434165 C 2523.787858 1425.829224 2459.801833 1442.072989 2441.644778 1486.877068 C 2423.473648 1531.765602 2458.042428 1588.013512 2518.903751 1612.618453 Z M 2518.903751 1612.618453 " stroke="rgb(9.408569%, 5.099487%, 4.708862%)" stroke-width="40" stroke-opacity="1" stroke-miterlimit="10"/><path fill="rgb(64.309692%, 74.119568%, 76.858521%)" d="M 485.792969 418.863281 C 485.792969 444.101562 465.347656 464.566406 440.109375 464.566406 C 414.882812 464.566406 394.425781 444.101562 394.425781 418.863281 C 394.425781 393.660156 414.882812 373.183594 440.109375 373.183594 C 465.347656 373.183594 485.792969 393.660156 485.792969 418.863281 " fill-opacity="1" fill-rule="nonzero"/><path stroke-linecap="round" transform="matrix(0.277526, 0, 0, -0.27751, -185.160002, 993.487002)" fill="none" stroke-linejoin="round" d="M 2417.618349 2070.639156 C 2417.618349 1979.693775 2343.948562 1905.949331 2253.008459 1905.949331 C 2162.110583 1905.949331 2088.39857 1979.693775 2088.39857 2070.639156 C 2088.39857 2161.457853 2162.110583 2235.244525 2253.008459 2235.244525 C 2343.948562 2235.244525 2417.618349 2161.457853 2417.618349 2070.639156 Z M 2417.618349 2070.639156 " stroke="rgb(9.408569%, 5.099487%, 4.708862%)" stroke-width="41.513" stroke-opacity="1" stroke-miterlimit="10"/><path fill="rgb(64.309692%, 74.119568%, 76.858521%)" d="M 420.128906 290.417969 C 420.128906 304.609375 408.617188 316.097656 394.425781 316.097656 C 380.234375 316.097656 368.722656 304.609375 368.722656 290.417969 C 368.722656 276.230469 380.234375 264.714844 394.425781 264.714844 C 408.617188 264.714844 420.128906 276.230469 420.128906 290.417969 " fill-opacity="1" fill-rule="nonzero"/><path stroke-linecap="round" transform="matrix(0.277526, 0, 0, -0.27751, -185.160002, 993.487002)" fill="none" stroke-linejoin="round" d="M 2181.013625 2533.487945 C 2181.013625 2482.349643 2139.533904 2440.95197 2088.39857 2440.95197 C 2037.263236 2440.95197 1995.783514 2482.349643 1995.783514 2533.487945 C 1995.783514 2584.612171 2037.263236 2626.108377 2088.39857 2626.108377 C 2139.533904 2626.108377 2181.013625 2584.612171 2181.013625 2533.487945 Z M 2181.013625 2533.487945 " stroke="rgb(9.408569%, 5.099487%, 4.708862%)" stroke-width="41.513" stroke-opacity="1" stroke-miterlimit="10"/><path fill="rgb(45.098877%, 79.998779%, 51.368713%)" d="M 582.277344 480.320312 C 582.277344 489.910156 574.492188 497.707031 564.910156 497.707031 C 555.316406 497.707031 547.542969 489.910156 547.542969 480.320312 C 547.542969 470.746094 555.316406 462.941406 564.910156 462.941406 C 574.492188 462.941406 582.277344 470.746094 582.277344 480.320312 " fill-opacity="1" fill-rule="nonzero"/><path stroke-linecap="round" transform="matrix(0.277526, 0, 0, -0.27751, -185.160002, 993.487002)" fill="none" stroke-linejoin="round" d="M 2765.276689 1849.180607 C 2765.276689 1814.623896 2737.224742 1786.528093 2702.698188 1786.528093 C 2668.129407 1786.528093 2640.119686 1814.623896 2640.119686 1849.180607 C 2640.119686 1883.681014 2668.129407 1911.804969 2702.698188 1911.804969 C 2737.224742 1911.804969 2765.276689 1883.681014 2765.276689 1849.180607 Z M 2765.276689 1849.180607 " stroke="rgb(9.408569%, 5.099487%, 4.708862%)" stroke-width="50" stroke-opacity="1" stroke-miterlimit="10"/></svg>